<svg xmlns="http://www.w3.org/2000/svg" xmlns:xlink="http://www.w3.org/1999/xlink"><symbol id="ok" viewBox="0 0 12 20"><g fill="none"><path d="M5.875 3.02543C7.07072 3.02543 8.04314 3.9842 8.04314 5.16312C8.04314 6.3385 7.07072 7.29726 5.875 7.29726C4.67928 7.29726 3.70687 6.3385 3.70687 5.16312C3.70687 3.9842 4.67928 3.02543 5.875 3.02543ZM5.875 10.3227C8.76345 10.3227 11.1117 8.00746 11.1117 5.16312C11.1117 2.31524 8.76345 0 5.875 0C2.98655 0 0.641942 2.31524 0.641942 5.16312C0.641942 8.00746 2.98655 10.3227 5.875 10.3227ZM7.99271 14.5342C9.05877 14.2927 10.0852 13.8772 11.0324 13.2913C11.7491 12.8474 11.9652 11.9135 11.515 11.2069C11.0612 10.4967 10.1176 10.2836 9.39732 10.7311C7.2544 12.0591 4.4956 12.0591 2.34908 10.7311C1.63237 10.2836 0.685162 10.4967 0.234968 11.2069C-0.215227 11.9135 0.000865602 12.8474 0.717575 13.2913C1.66478 13.8772 2.69123 14.2927 3.75729 14.5342L0.829223 17.4176C0.231365 18.007 0.231365 18.9658 0.829223 19.5552C1.13175 19.85 1.52072 19.9991 1.91329 19.9991C2.30586 19.9991 2.69843 19.85 3.00096 19.5552L5.875 16.7216L8.75264 19.5552C9.3505 20.1483 10.3193 20.1483 10.9208 19.5552C11.5186 18.9658 11.5186 18.007 10.9208 17.4176L7.99271 14.5342Z" fill="#F9FBFD"/></g></symbol><symbol id="reddit" viewBox="0 0 20 20"><g fill="none"><path d="M11.9453 0C11.304 0 10.7021 0.325343 10.3161 0.794521C9.93009 1.2637 9.71732 1.83562 9.56231 2.43836C9.31611 3.40753 9.24012 4.48288 9.22188 5.45205C7.41944 5.57192 5.78722 6.10616 4.43159 6.93151C3.88143 6.46918 3.21882 6.21233 2.58356 6.21918C1.86015 6.22603 1.17322 6.53767 0.662576 7.17808C-0.313112 8.40068 -0.200649 10.4007 0.930054 11.589C0.860145 11.9555 0.808473 12.3322 0.808473 12.7123C0.808473 16.7397 4.92399 20 10 20C15.076 20 19.1915 16.7363 19.1915 12.7123C19.1915 12.3322 19.1399 11.9555 19.0699 11.589C20.2006 10.4007 20.3131 8.40068 19.3374 7.17808C18.8268 6.53767 18.1399 6.22603 17.4164 6.21918C16.7812 6.21233 16.1186 6.46918 15.5684 6.93151C14.2189 6.10959 12.5958 5.57534 10.8024 5.45205C10.8268 4.55822 10.8906 3.63014 11.0699 2.93151C11.1824 2.49315 11.3161 2.17466 11.459 2C11.6018 1.82534 11.7052 1.75342 11.9453 1.75342C12.4651 1.75342 12.5319 1.92123 12.845 2.32877C13.0031 2.53425 13.1854 2.7911 13.4772 3.0411C13.769 3.2911 14.2006 3.50685 14.6687 3.50685V1.75342C14.538 1.75342 14.5137 1.75 14.4256 1.67123C14.3374 1.59247 14.2158 1.41096 14.0365 1.17808C13.6778 0.708904 12.9818 0 11.9453 0ZM17.0031 0.164384C15.7933 0.164384 14.8146 1.26712 14.8146 2.63014C14.8146 3.99315 15.7933 5.09589 17.0031 5.09589C18.2128 5.09589 19.1915 3.99315 19.1915 2.63014C19.1915 1.26712 18.2128 0.164384 17.0031 0.164384ZM17.0031 1.0411C17.7812 1.0411 18.4134 1.75342 18.4134 2.63014C18.4134 3.50685 17.7812 4.21918 17.0031 4.21918C16.225 4.21918 15.5927 3.50685 15.5927 2.63014C15.5927 1.75342 16.225 1.0411 17.0031 1.0411ZM10 6.82192C14.307 6.82192 17.9514 9.52397 17.9514 12.7123C17.9514 15.9041 14.307 18.6027 10 18.6027C5.69299 18.6027 2.0486 15.9041 2.0486 12.7123C2.0486 9.52397 5.69299 6.82192 10 6.82192ZM2.60787 7.61644C2.82368 7.61986 3.0486 7.67466 3.26441 7.78082C2.48325 8.44863 1.86319 9.21575 1.44069 10.0822C1.1489 9.40411 1.22793 8.55822 1.58659 8.10959C1.84799 7.78082 2.20969 7.61301 2.60787 7.61644ZM17.3921 7.61644C17.7903 7.61301 18.152 7.78082 18.4134 8.10959C18.7721 8.55822 18.8511 9.40411 18.5593 10.0822C18.1368 9.21575 17.5167 8.44863 16.7356 7.78082C16.9514 7.67466 17.1763 7.61986 17.3921 7.61644ZM6.88753 9.80822C6.10941 9.80822 5.47719 10.5205 5.47719 11.3973C5.47719 12.274 6.10941 12.9863 6.88753 12.9863C7.66564 12.9863 8.29786 12.274 8.29786 11.3973C8.29786 10.5205 7.66564 9.80822 6.88753 9.80822ZM13.1125 9.80822C12.3344 9.80822 11.7021 10.5205 11.7021 11.3973C11.7021 12.274 12.3344 12.9863 13.1125 12.9863C13.8906 12.9863 14.5228 12.274 14.5228 11.3973C14.5228 10.5205 13.8906 9.80822 13.1125 9.80822ZM6.13372 15.2055C6.62917 16.3596 8.16109 17.4795 10 17.4795C11.8389 17.4795 13.3952 16.3596 13.8906 15.2055C12.9909 15.8596 11.5714 16.3014 10 16.3014C8.42857 16.3014 7.03342 15.8596 6.13372 15.2055Z" fill="#F9FBFD"/></g></symbol><symbol id="vk" viewBox="0 0 30 30"><path d="M21.617 17.4544C20.3818 16.2726 20.2935 16.2726 21.3523 14.9091C22.6758 13.1819 24.4405 11.0002 22.8523 11.0002H19.9406C19.4112 11.0002 19.323 11.3638 19.1465 11.8184C18.4406 13.5455 17.0289 15.8181 16.4995 15.4545C15.9701 15.0909 16.2348 13.7273 16.2348 11.5457C16.323 11.2729 16.2348 11.0002 16.0583 10.8184C15.8819 10.6366 15.6172 10.4548 15.3525 10.4548C14.9113 10.3639 14.4702 10.273 14.029 10.273C12.3526 10.273 11.2056 11.0002 11.8232 11.0911C12.9702 11.2729 12.882 13.8182 12.6173 14.9091C12.1761 16.8181 10.4115 13.4546 9.61736 11.7275C9.52913 11.2729 9.1762 11.0002 8.73504 11.0002H6.44099C6.08806 11.0002 5.82336 11.0911 5.82336 11.3638C5.82336 11.8184 8.02917 16.2726 10.0585 18.5452C12.0879 20.7269 14.1172 20.5451 15.529 20.5451C15.7054 20.5451 15.8819 20.4542 15.9701 20.3633C16.0583 20.2724 16.1466 20.0906 16.1466 19.9088C16.1466 18.4543 16.676 17.7271 17.6465 18.727C18.7053 19.8179 18.97 20.5451 20.2935 20.5451H22.6758C23.2934 20.5451 23.4699 20.3633 23.4699 20.0906C23.5581 19.4543 22.4993 18.2725 21.617 17.4544ZM15.3525 0.000910576C23.5581 0.182718 30.0873 7.00048 29.9991 15.2727C29.9109 23.5449 23.117 30.09 14.9113 29.9991C6.61745 29.9082 0 23.2722 0 15C0.0882327 6.63687 6.97038 -0.0899929 15.3525 0.000910576Z"/></symbol></svg>